<svg width="49" height="48" viewBox="0 0 49 48" fill="none" xmlns="http://www.w3.org/2000/svg">
<path d="M24.5 4C13.5 4 4.5 13 4.5 24C4.5 35 13.5 44 24.5 44C35.5 44 44.5 35 44.5 24C44.5 13 35.5 4 24.5 4ZM24.5 40C15.7 40 8.5 32.8 8.5 24C8.5 15.2 15.7 8 24.5 8C33.3 8 40.5 15.2 40.5 24C40.5 32.8 33.3 40 24.5 40Z" fill="url(#paint0_linear_142_2242)"/>
<path d="M27.1001 22H21.9001C20.9001 22 20.1001 21.2 20.1001 20.2C20.1001 19.2 20.9001 18.4 21.9001 18.4H29.3001C30.5001 18.4 31.3001 17.6 31.3001 16.4C31.3001 15.2 30.5001 14.4 29.3001 14.4H26.5001V12.6C26.5001 11.4 25.7001 10.6 24.5001 10.6C23.3001 10.6 22.5001 11.4 22.5001 12.6V14.4H21.9001C18.7001 14.4 16.1001 17 16.1001 20.2C16.1001 23.4 18.7001 26 21.9001 26H26.9001C27.9001 26 28.7001 26.8 28.7001 27.8C28.7001 28.8 27.9001 29.6 26.9001 29.6H19.5001C18.3001 29.6 17.5001 30.4 17.5001 31.6C17.5001 32.8 18.3001 33.6 19.5001 33.6H22.5001V35.4C22.5001 36.6 23.3001 37.4 24.5001 37.4C25.7001 37.4 26.5001 36.6 26.5001 35.4V33.6H27.1001C30.3001 33.6 32.9001 31 32.9001 27.8C32.9001 24.6 30.3001 22 27.1001 22Z" fill="url(#paint1_linear_142_2242)"/>
<defs>
<linearGradient id="paint0_linear_142_2242" x1="24.5" y1="4" x2="24.5" y2="44" gradientUnits="userSpaceOnUse">
<stop stop-color="#FFA724"/>
<stop offset="1" stop-color="#FF6813"/>
</linearGradient>
<linearGradient id="paint1_linear_142_2242" x1="24.5001" y1="10.6" x2="24.5001" y2="37.4" gradientUnits="userSpaceOnUse">
<stop stop-color="#FFA724"/>
<stop offset="1" stop-color="#FF6813"/>
</linearGradient>
</defs>
</svg>
