<svg width="48" height="48" viewBox="0 0 48 48" fill="none" xmlns="http://www.w3.org/2000/svg">
<g id="Icons/Date">
<path id="Vector" d="M38 8H34V6C34 5.46957 33.7893 4.96086 33.4142 4.58579C33.0391 4.21071 32.5304 4 32 4C31.4696 4 30.9609 4.21071 30.5858 4.58579C30.2107 4.96086 30 5.46957 30 6V8H18V6C18 5.46957 17.7893 4.96086 17.4142 4.58579C17.0391 4.21071 16.5304 4 16 4C15.4696 4 14.9609 4.21071 14.5858 4.58579C14.2107 4.96086 14 5.46957 14 6V8H10C8.4087 8 6.88258 8.63214 5.75736 9.75736C4.63214 10.8826 4 12.4087 4 14V38C4 39.5913 4.63214 41.1174 5.75736 42.2426C6.88258 43.3679 8.4087 44 10 44H38C39.5913 44 41.1174 43.3679 42.2426 42.2426C43.3679 41.1174 44 39.5913 44 38V14C44 12.4087 43.3679 10.8826 42.2426 9.75736C41.1174 8.63214 39.5913 8 38 8ZM40 38C40 38.5304 39.7893 39.0391 39.4142 39.4142C39.0391 39.7893 38.5304 40 38 40H10C9.46957 40 8.96086 39.7893 8.58579 39.4142C8.21071 39.0391 8 38.5304 8 38V24H40V38ZM40 20H8V14C8 13.4696 8.21071 12.9609 8.58579 12.5858C8.96086 12.2107 9.46957 12 10 12H14V14C14 14.5304 14.2107 15.0391 14.5858 15.4142C14.9609 15.7893 15.4696 16 16 16C16.5304 16 17.0391 15.7893 17.4142 15.4142C17.7893 15.0391 18 14.5304 18 14V12H30V14C30 14.5304 30.2107 15.0391 30.5858 15.4142C30.9609 15.7893 31.4696 16 32 16C32.5304 16 33.0391 15.7893 33.4142 15.4142C33.7893 15.0391 34 14.5304 34 14V12H38C38.5304 12 39.0391 12.2107 39.4142 12.5858C39.7893 12.9609 40 13.4696 40 14V20Z" fill="url(#paint0_linear_131_1382)"/>
</g>
<defs>
<linearGradient id="paint0_linear_131_1382" x1="24" y1="4" x2="24" y2="44" gradientUnits="userSpaceOnUse">
<stop stop-color="#FFA724"/>
<stop offset="1" stop-color="#FF6813"/>
</linearGradient>
</defs>
</svg>
