<svg xmlns="http://www.w3.org/2000/svg" width="24" height="24" viewBox="0 0 24 24" fill="none">
  <rect width="24" height="24" rx="12" fill="#0077FF"/>
  <path d="M12.5894 16.2C8.07948 16.2 5.50709 13.0469 5.3999 7.80005H7.65899C7.73319 11.6511 9.39865 13.2823 10.7178 13.6187V7.80005H12.845V11.1214C14.1477 10.9784 15.5163 9.46491 15.978 7.80005H18.1052C17.9312 8.6635 17.5844 9.48104 17.0865 10.2015C16.5885 10.9221 15.9501 11.53 15.2113 11.9874C16.036 12.4054 16.7645 12.9969 17.3486 13.7231C17.9327 14.4492 18.3592 15.2935 18.5999 16.2H16.2584C16.0423 15.4126 15.6031 14.7077 14.9959 14.1737C14.3887 13.6398 13.6405 13.3004 12.845 13.1982V16.2H12.5894Z" fill="white"/>
</svg>