<svg xmlns="http://www.w3.org/2000/svg" width="1em" height="1em" viewBox="0 0 18 18" fill="none" stroke="currentColor" stroke-width="2" stroke-linecap="round" stroke-linejoin="round">
  <path d="M1 3.22222C1 10.8315 7.16852 17 14.7778 17C15.1211 17 15.4614 16.9875 15.7985 16.9628C16.1852 16.9344 16.3786 16.9203 16.5547 16.8189C16.7004 16.735 16.8387 16.5862 16.9117 16.4347C17 16.2517 17 16.0383 17 15.6116V13.1073C17 12.7484 17 12.5689 16.9409 12.4151C16.8888 12.2792 16.804 12.1582 16.6941 12.0628C16.5698 11.9547 16.4011 11.8933 16.0638 11.7707L13.2133 10.7341C12.8209 10.5915 12.6246 10.5201 12.4385 10.5322C12.2743 10.5428 12.1164 10.5989 11.9821 10.694C11.83 10.8019 11.7226 10.9809 11.5077 11.339L10.7778 12.5556C8.42231 11.4888 6.5128 9.5768 5.44444 7.22222L6.661 6.49228C7.01907 6.27745 7.1981 6.17003 7.30596 6.01783C7.40107 5.88363 7.45716 5.72566 7.46782 5.56151C7.47991 5.37535 7.40853 5.17914 7.26587 4.78671L6.22932 1.93619C6.10667 1.5989 6.04534 1.43025 5.93726 1.30587C5.84179 1.19599 5.72079 1.11124 5.58491 1.05907C5.43108 1 5.25163 1 4.89273 1H2.38845C1.96167 1 1.74828 1 1.56532 1.08822C1.41378 1.1613 1.26501 1.29956 1.18107 1.44536C1.07972 1.6214 1.06556 1.81477 1.03724 2.20154C1.01256 2.53854 1 2.87892 1 3.22222Z" />
</svg>