<svg xmlns="http://www.w3.org/2000/svg" width="24" height="24" viewBox="0 0 24 24" fill="none">
  <rect width="24" height="24" rx="12" fill="#48C95F"/>
  <path d="M16.7561 7.2374C15.5707 6.05615 13.9902 5.3999 12.3219 5.3999C8.85366 5.3999 6.0439 8.1999 6.0439 11.6562C6.0439 12.7499 6.35122 13.8437 6.87805 14.7624L6 17.9999L9.33659 17.1249C10.2585 17.6062 11.2683 17.8687 12.3219 17.8687C15.7902 17.8687 18.6 15.0687 18.6 11.6124C18.5561 9.99365 17.9415 8.41865 16.7561 7.2374ZM15.3512 13.8874C15.2195 14.2374 14.6049 14.5874 14.2976 14.6312C14.0341 14.6749 13.6829 14.6749 13.3317 14.5874C13.1122 14.4999 12.8049 14.4124 12.4537 14.2374C10.8732 13.5812 9.86342 12.0062 9.77561 11.8749C9.68781 11.7874 9.11707 11.0437 9.11707 10.2562C9.11707 9.46865 9.51219 9.11865 9.6439 8.94365C9.77561 8.76865 9.95122 8.76865 10.0829 8.76865C10.1707 8.76865 10.3024 8.76865 10.3902 8.76865C10.478 8.76865 10.6098 8.7249 10.7415 9.03115C10.8732 9.3374 11.1805 10.1249 11.2244 10.1687C11.2683 10.2562 11.2683 10.3437 11.2244 10.4312C11.1805 10.5187 11.1366 10.6062 11.0488 10.6937C10.961 10.7812 10.8732 10.9124 10.8293 10.9562C10.7415 11.0437 10.6537 11.1312 10.7415 11.2624C10.8293 11.4374 11.1366 11.9187 11.6195 12.3562C12.2341 12.8812 12.7171 13.0562 12.8927 13.1437C13.0683 13.2312 13.1561 13.1874 13.2439 13.0999C13.3317 13.0124 13.639 12.6624 13.7268 12.4874C13.8146 12.3124 13.9463 12.3562 14.078 12.3999C14.2098 12.4437 15 12.8374 15.1317 12.9249C15.3073 13.0124 15.3951 13.0562 15.439 13.0999C15.4829 13.2312 15.4829 13.5374 15.3512 13.8874Z" fill="white"/>
</svg>