<svg width="48" height="48" viewBox="0 0 48 48" fill="none" xmlns="http://www.w3.org/2000/svg">
<path d="M6 42C4.8 42 4 41.2 4 40V22C4 20.8 4.8 20 6 20C7.2 20 8 20.8 8 22V40C8 41.2 7.2 42 6 42Z" fill="url(#paint0_linear_142_2251)"/>
<path d="M32.5518 44H16.0792C12.7454 44 10 41.2 10 37.8V21C10 18.8 10.7844 16.8 12.1571 15L20.0013 6C21.1779 4.8 22.9428 4 24.9038 4C27.061 4 28.8259 5 30.0025 6.6C31.1791 8.4 31.5713 10.4 30.983 12.4L29.8064 16.2H38.0427C40.0038 16.2 41.7687 17 42.7492 18.6C43.9258 20.2 44.318 22.2 43.7297 24L39.6115 38.2C38.631 41.8 35.8856 44 32.5518 44ZM15.2948 17.8C14.5104 18.8 14.1182 19.8 14.1182 21V37.8C14.1182 39 15.0987 40 16.2753 40H32.7479C34.3168 40 35.6895 39 36.0817 37.4L40.0038 23.2C40.1999 22.6 40.0038 21.8 39.6115 21.2C39.2193 20.6 38.631 20.4 38.0427 20.4H27.061C26.4726 20.4 25.8843 20 25.4921 19.6C25.0999 19.2 25.0999 18.4 25.296 17.8L27.4532 11.2C27.6493 10.4 27.6493 9.6 27.061 9C26.2765 7.8 24.3155 7.6 23.335 8.8L15.2948 17.8Z" fill="url(#paint1_linear_142_2251)"/>
<defs>
<linearGradient id="paint0_linear_142_2251" x1="6" y1="20" x2="6" y2="42" gradientUnits="userSpaceOnUse">
<stop stop-color="#FFA724"/>
<stop offset="1" stop-color="#FF6813"/>
</linearGradient>
<linearGradient id="paint1_linear_142_2251" x1="27" y1="4" x2="27" y2="44" gradientUnits="userSpaceOnUse">
<stop stop-color="#FFA724"/>
<stop offset="1" stop-color="#FF6813"/>
</linearGradient>
</defs>
</svg>
