<svg width="48" height="48" viewBox="0 0 48 48" fill="none" xmlns="http://www.w3.org/2000/svg">
<g id="Icons/Magnifier">
<path id="Vector" d="M43.4198 40.5801L35.9998 33.2201C38.88 29.6289 40.2748 25.0706 39.8974 20.4827C39.52 15.8947 37.3992 11.6256 33.9708 8.55334C30.5425 5.48107 26.0674 3.83907 21.4657 3.96499C16.8639 4.09091 12.4853 5.97518 9.23009 9.23034C5.97493 12.4855 4.09067 16.8641 3.96475 21.4659C3.83883 26.0677 5.48082 30.5428 8.5531 33.9711C11.6254 37.3994 15.8944 39.5203 20.4824 39.8977C25.0704 40.2751 29.6286 38.8803 33.2198 36.0001L40.5798 43.3601C40.7657 43.5475 40.9869 43.6963 41.2307 43.7978C41.4744 43.8994 41.7358 43.9516 41.9998 43.9516C42.2638 43.9516 42.5252 43.8994 42.769 43.7978C43.0127 43.6963 43.2339 43.5475 43.4198 43.3601C43.7803 42.9871 43.9818 42.4887 43.9818 41.9701C43.9818 41.4514 43.7803 40.953 43.4198 40.5801ZM21.9998 36.0001C19.2309 36.0001 16.5241 35.179 14.2218 33.6406C11.9195 32.1023 10.1251 29.9158 9.0655 27.3576C8.00587 24.7995 7.72862 21.9845 8.26881 19.2688C8.80901 16.5531 10.1424 14.0585 12.1003 12.1006C14.0582 10.1426 16.5528 8.80925 19.2685 8.26906C21.9843 7.72887 24.7992 8.00611 27.3574 9.06574C29.9155 10.1254 32.102 11.9198 33.6404 14.2221C35.1787 16.5244 35.9998 19.2311 35.9998 22.0001C35.9998 25.7131 34.5248 29.274 31.8993 31.8995C29.2738 34.5251 25.7128 36.0001 21.9998 36.0001Z" fill="url(#paint0_linear_131_1367)"/>
</g>
<defs>
<linearGradient id="paint0_linear_131_1367" x1="23.9699" y1="3.95825" x2="23.9699" y2="43.9516" gradientUnits="userSpaceOnUse">
<stop stop-color="#FFA724"/>
<stop offset="1" stop-color="#FF6813"/>
</linearGradient>
</defs>
</svg>
