<svg width="48" height="48" viewBox="0 0 48 48" fill="none" xmlns="http://www.w3.org/2000/svg">
<g id="Icons/Reload">
<path id="Vector" d="M42 22C41.4696 22 40.9609 22.2107 40.5858 22.5858C40.2107 22.9609 40 23.4696 40 24C40.0238 27.7461 38.7406 31.3832 36.3713 34.2849C34.0021 37.1866 30.6951 39.1714 27.0199 39.8972C23.3448 40.6231 19.5316 40.0447 16.237 38.2616C12.9425 36.4785 10.3728 33.6023 8.97065 30.1285C7.56849 26.6547 7.42159 22.8006 8.55524 19.2302C9.6889 15.6597 12.0321 12.5963 15.1814 10.5676C18.3307 8.53885 22.0888 7.67182 25.8085 8.11582C29.5283 8.55982 32.9767 10.287 35.56 13H30.76C30.2296 13 29.7209 13.2107 29.3458 13.5858C28.9707 13.9609 28.76 14.4696 28.76 15C28.76 15.5304 28.9707 16.0391 29.3458 16.4142C29.7209 16.7893 30.2296 17 30.76 17H39.82C40.3504 17 40.8591 16.7893 41.2342 16.4142C41.6093 16.0391 41.82 15.5304 41.82 15V6C41.82 5.46957 41.6093 4.96086 41.2342 4.58579C40.8591 4.21071 40.3504 4 39.82 4C39.2896 4 38.7809 4.21071 38.4058 4.58579C38.0307 4.96086 37.82 5.46957 37.82 6V9.54C34.4893 6.35612 30.1615 4.4199 25.568 4.05866C20.9746 3.69741 16.3973 4.93329 12.6098 7.55738C8.82243 10.1815 6.05722 14.0328 4.78166 18.4604C3.5061 22.8879 3.79843 27.6201 5.60922 31.8571C7.42002 36.094 10.6382 39.5757 14.7198 41.7137C18.8014 43.8517 23.496 44.5148 28.0101 43.591C32.5242 42.6671 36.5808 40.213 39.4943 36.6433C42.4077 33.0737 43.9993 28.6076 44 24C44 23.4696 43.7893 22.9609 43.4142 22.5858C43.0392 22.2107 42.5304 22 42 22Z" fill="url(#paint0_linear_131_1377)"/>
</g>
<defs>
<linearGradient id="paint0_linear_131_1377" x1="24" y1="3.99707" x2="24" y2="43.9971" gradientUnits="userSpaceOnUse">
<stop stop-color="#FFA724"/>
<stop offset="1" stop-color="#FF6813"/>
</linearGradient>
</defs>
</svg>
