<svg width="48" height="48" viewBox="0 0 48 48" fill="none" xmlns="http://www.w3.org/2000/svg">
<g clip-path="url(#clip0_142_2263)">
<path d="M12.9698 39.1539L12.9689 39.1544C10.8667 40.3615 8.51482 40.8932 6.87369 41.1262C7.1066 39.4851 7.63819 37.133 8.84399 35.0294C9.35375 34.143 9.04679 33.0129 8.16174 32.5036L8.16077 32.5031C7.26807 31.9921 6.14252 32.3025 5.63511 33.1878C3.023 37.7436 2.99487 42.922 2.99487 43.155C2.99487 44.1766 3.82323 45.005 4.84487 45.005C5.07783 45.005 10.2563 44.9769 14.8121 42.3648L14.8127 42.3644C15.6979 41.8551 16.0045 40.7267 15.4953 39.8391C14.9886 38.9521 13.8594 38.6455 12.9698 39.1539Z" fill="url(#paint0_linear_142_2263)" stroke="url(#paint1_linear_142_2263)"/>
<path d="M46.8633 4.92181V4.92193C46.7921 8.70241 45.716 18.7875 37.2337 28.3792C37.5432 29.179 37.9073 30.1502 38.1793 31.1521C38.4828 32.2698 38.6856 33.473 38.5463 34.5518C38.5463 34.5519 38.5463 34.552 38.5463 34.552L38.0504 34.488C37.6844 37.3485 33.7904 41.5755 29.6354 45.717L46.8633 4.92181ZM46.8633 4.92181C46.8824 3.90023 46.4955 2.93777 45.7746 2.21853C45.0447 1.48898 44.012 1.14353 43.0905 1.13503L43.0905 1.13483L43.0765 1.1351C39.2976 1.20637 29.2124 2.28097 19.6206 10.7648C18.8197 10.4552 17.8455 10.0918 16.8423 9.82014C15.7238 9.51722 14.5211 9.31433 13.4511 9.4521C11.8695 9.65525 10.0011 10.805 8.06729 12.3448C6.11083 13.9026 4.00134 15.9322 1.9289 18.0114C1.25742 18.6847 0.98799 19.6427 1.21336 20.5682C1.43741 21.4975 2.11921 22.2285 3.02853 22.5201C3.02862 22.5201 3.02871 22.5201 3.0288 22.5201L9.03888 24.4505M46.8633 4.92181L9.03888 24.4505M9.03888 24.4505C8.63854 25.1933 8.24322 25.9556 7.85822 26.7525L7.85819 26.7526C7.17151 28.1745 7.46279 29.881 8.58188 30.9971C8.58206 30.9972 8.58224 30.9974 8.58243 30.9976L17.001 39.4161C17.7151 40.132 18.6714 40.5095 19.6364 40.5095C20.1819 40.5095 20.7335 40.39 21.2474 40.1417L21.0299 39.6915L21.2474 40.1417C22.0439 39.757 22.8057 39.3619 23.5466 38.9625L25.4783 44.9711L9.03888 24.4505ZM11.1903 28.3602C21.5637 6.87323 38.3016 4.92852 43.1432 4.83651H43.1504C43.1552 4.83651 43.1583 4.83685 43.1598 4.83709C43.1602 4.83745 43.1607 4.83793 43.1614 4.83856C43.161 4.83821 43.1617 4.83884 43.1627 4.84017C43.1637 4.84147 43.1644 4.84271 43.1649 4.84373C43.1651 4.84421 43.1653 4.84464 43.1655 4.84508C43.1656 4.84542 43.1657 4.84577 43.1658 4.84615C43.1659 4.84679 43.1666 4.84954 43.1665 4.85532L43.6664 4.86301M11.1903 28.3602L19.8554 37.26C41.5769 26.775 43.5704 9.81301 43.6664 4.86301M11.1903 28.3602C11.1902 28.3613 11.1902 28.3633 11.1907 28.3663C11.191 28.3681 11.1915 28.3698 11.192 28.3714C11.1925 28.373 11.1932 28.3745 11.1939 28.3759C11.1952 28.3785 11.1964 28.3799 11.197 28.3805L19.618 36.8015C19.6183 36.8018 19.6189 36.8023 19.6197 36.8029C19.6206 36.8035 19.6217 36.8042 19.6232 36.805C19.6262 36.8065 19.6298 36.8078 19.6336 36.8084C19.6363 36.8089 19.6384 36.809 19.6397 36.8089C41.1322 26.4337 43.0727 9.68897 43.1665 4.85331L43.6664 4.86301M11.1903 28.3602L43.6664 4.86301M12.1152 13.9622C12.8903 13.4604 13.508 13.1762 13.9222 13.1229C14.3066 13.074 14.8469 13.139 15.4817 13.2901C15.8684 13.3821 16.2725 13.5015 16.6723 13.6329C14.6814 15.7665 12.7497 18.2651 10.9346 21.174L5.68915 19.4902C6.76585 18.4311 8.21254 17.0487 9.6507 15.8351C10.5104 15.1097 11.3579 14.4524 12.1152 13.9622ZM34.877 34.0792C34.8238 34.4931 34.5396 35.1105 34.0378 35.8856C33.5476 36.6428 32.8903 37.4903 32.1648 38.35C30.9511 39.7883 29.5685 41.2351 28.5095 42.3114L26.8232 37.0669C29.735 35.2514 32.2341 33.3183 34.3678 31.3269C34.4994 31.7262 34.619 32.1297 34.711 32.5162C34.862 33.1505 34.9267 33.6917 34.877 34.0792Z" fill="url(#paint2_linear_142_2263)" stroke="url(#paint3_linear_142_2263)"/>
<path d="M36.5453 20.1748L36.5457 20.1744C38.9488 17.7697 38.9488 13.8593 36.5457 11.4546L36.5453 11.4542C34.2083 9.12042 30.1599 9.12006 27.8255 11.4545C26.6621 12.6178 26.02 14.1685 26.02 15.8145C26.02 17.4608 26.6638 19.0113 27.8252 20.1743L27.8255 20.1746C28.9888 21.3379 30.5395 21.98 32.1855 21.98C33.8318 21.98 35.3808 21.3378 36.5453 20.1748ZM33.9275 17.558L33.9272 17.5582C33.0018 18.4849 31.3646 18.4842 30.4428 17.5587L30.4416 17.5575C29.9748 17.0919 29.7185 16.4738 29.7185 15.8145C29.7185 15.1556 29.9745 14.5386 30.4421 14.0711C30.908 13.6051 31.5249 13.349 32.184 13.349C32.8418 13.349 33.4601 13.6052 33.926 14.0711L33.9262 14.0713C34.8887 15.0325 34.8887 16.5968 33.9275 17.558Z" fill="url(#paint4_linear_142_2263)" stroke="url(#paint5_linear_142_2263)"/>
</g>
<defs>
<linearGradient id="paint0_linear_142_2263" x1="9.36809" y1="32.7568" x2="9.36809" y2="44.505" gradientUnits="userSpaceOnUse">
<stop stop-color="#FFA724"/>
<stop offset="1" stop-color="#FF6813"/>
</linearGradient>
<linearGradient id="paint1_linear_142_2263" x1="9.36809" y1="32.7568" x2="9.36809" y2="44.505" gradientUnits="userSpaceOnUse">
<stop stop-color="#FFA724"/>
<stop offset="1" stop-color="#FF6813"/>
</linearGradient>
<linearGradient id="paint2_linear_142_2263" x1="23.9996" y1="1.63501" x2="23.9996" y2="46.365" gradientUnits="userSpaceOnUse">
<stop stop-color="#FFA724"/>
<stop offset="1" stop-color="#FF6813"/>
</linearGradient>
<linearGradient id="paint3_linear_142_2263" x1="23.9996" y1="1.63501" x2="23.9996" y2="46.365" gradientUnits="userSpaceOnUse">
<stop stop-color="#FFA724"/>
<stop offset="1" stop-color="#FF6813"/>
</linearGradient>
<linearGradient id="paint4_linear_142_2263" x1="32.184" y1="10.2038" x2="32.184" y2="21.48" gradientUnits="userSpaceOnUse">
<stop stop-color="#FFA724"/>
<stop offset="1" stop-color="#FF6813"/>
</linearGradient>
<linearGradient id="paint5_linear_142_2263" x1="32.184" y1="10.2038" x2="32.184" y2="21.48" gradientUnits="userSpaceOnUse">
<stop stop-color="#FFA724"/>
<stop offset="1" stop-color="#FF6813"/>
</linearGradient>
<clipPath id="clip0_142_2263">
<rect width="48" height="48" fill="white"/>
</clipPath>
</defs>
</svg>
