<svg xmlns="http://www.w3.org/2000/svg" width="48" height="48" viewBox="0 0 48 48" fill="none">
  <path d="M12.969 39.1544L12.9699 39.1539C13.8596 38.6455 14.9888 38.9521 15.4954 39.8391C16.0046 40.7267 15.698 41.8551 14.8129 42.3644L14.8122 42.3648C10.2564 44.9769 5.07795 45.005 4.845 45.005C3.82335 45.005 2.995 44.1766 2.995 43.155C2.995 42.922 3.02312 37.7437 5.63518 33.1879L12.969 39.1544ZM12.969 39.1544C10.8668 40.3615 8.51494 40.8932 6.87381 41.1262C7.10671 39.4851 7.63827 37.1332 8.84397 35.0297C9.35393 34.1432 9.04699 33.0129 8.16186 32.5036L8.16089 32.5031M12.969 39.1544L8.16089 32.5031M8.16089 32.5031C7.26819 31.9921 6.14264 32.3025 5.63524 33.1878L8.16089 32.5031Z" fill="url(#paint0_linear_173_128)" stroke="url(#paint1_linear_173_128)"/>
  <path d="M46.8634 4.92181V4.92193C46.7921 8.70241 45.716 18.7875 37.2338 28.3792C37.5432 29.179 37.9074 30.1502 38.1794 31.1521C38.4829 32.2698 38.6856 33.473 38.5464 34.5518C38.5464 34.5519 38.5464 34.552 38.5464 34.552L38.0505 34.488C37.6845 37.3485 33.7905 41.5755 29.6355 45.717L46.8634 4.92181ZM46.8634 4.92181C46.8824 3.90043 46.4958 2.93815 45.775 2.21896C45.0452 1.48911 44.0122 1.14353 43.0906 1.13503L43.0906 1.13483L43.0766 1.1351C39.2976 1.20637 29.2125 2.28097 19.6207 10.7647C18.8197 10.4552 17.8456 10.0918 16.8424 9.82014C15.7238 9.51722 14.5212 9.31433 13.4511 9.4521C11.8696 9.65525 10.0011 10.805 8.06735 12.3448C6.11089 13.9026 4.0014 15.9322 1.92896 18.0114C1.25749 18.6847 0.988052 19.6427 1.21342 20.5682C1.43747 21.4975 2.11927 22.2285 3.02859 22.5201C3.02868 22.5201 3.02877 22.5201 3.02886 22.5201L9.03894 24.4505M46.8634 4.92181L9.03894 24.4505M9.03894 24.4505C8.6386 25.1933 8.24328 25.9556 7.85828 26.7525L7.85825 26.7526C7.17157 28.1745 7.46285 29.881 8.58194 30.9971C8.58212 30.9972 8.58231 30.9974 8.58249 30.9976L17.001 39.4161C17.7151 40.132 18.6715 40.5095 19.6365 40.5095C20.182 40.5095 20.7336 40.39 21.2475 40.1417L21.03 39.6915L21.2475 40.1417C22.0439 39.757 22.8058 39.3619 23.5467 38.9625L25.4784 44.9711L9.03894 24.4505ZM11.1903 28.3602C21.5637 6.87323 38.3016 4.92852 43.1432 4.83651H43.1505C43.1553 4.83651 43.1583 4.83685 43.1599 4.83709C43.1603 4.83744 43.1608 4.83791 43.1614 4.83852C43.1611 4.83827 43.1618 4.8389 43.1627 4.84017C43.1637 4.84147 43.1645 4.84271 43.165 4.84373C43.1654 4.84458 43.1656 4.84529 43.1659 4.84615C43.166 4.8468 43.1666 4.84955 43.1666 4.85532L43.6665 4.86301M11.1903 28.3602L43.6665 4.86301M11.1903 28.3602C11.1903 28.3613 11.1902 28.3633 11.1908 28.3663C11.1914 28.3698 11.1925 28.3732 11.1939 28.3759C11.1953 28.3785 11.1965 28.3799 11.197 28.3805L19.618 36.8015C19.6184 36.8018 19.6189 36.8022 19.6196 36.8027C19.6204 36.8034 19.6216 36.8042 19.6232 36.805C19.6262 36.8065 19.6299 36.8078 19.6337 36.8084C19.636 36.8089 19.6378 36.809 19.6391 36.809C19.6394 36.809 19.6396 36.809 19.6398 36.8089C41.1323 26.4337 43.0728 9.68897 43.1666 4.85331L43.6665 4.86301M11.1903 28.3602L43.6665 4.86301M12.1152 13.9622C12.8904 13.4604 13.508 13.1762 13.9222 13.1229C14.3067 13.074 14.8469 13.139 15.4818 13.2901C15.8685 13.3821 16.2725 13.5015 16.6724 13.6329C14.6814 15.7665 12.7498 18.2651 10.9346 21.174L5.68921 19.4902C6.76591 18.4311 8.2126 17.0487 9.65076 15.8351C10.5105 15.1097 11.358 14.4524 12.1152 13.9622ZM34.8771 34.0794C34.8238 34.4932 34.5396 35.1106 34.0378 35.8856C33.5476 36.6428 32.8903 37.4903 32.1649 38.35C30.9512 39.7883 29.5686 41.2351 28.5095 42.3114L26.8232 37.0669C29.7351 35.2514 32.2342 33.3182 34.3679 31.3269C34.4995 31.7262 34.6191 32.1297 34.7111 32.5162C34.8621 33.1505 34.9268 33.6918 34.8771 34.0794Z" fill="url(#paint2_linear_173_128)" stroke="url(#paint3_linear_173_128)"/>
  <path d="M36.5453 20.1748L36.5457 20.1744C38.9488 17.7697 38.9488 13.8593 36.5457 11.4546L36.5453 11.4542C34.2082 9.12039 30.1598 9.12003 27.8254 11.4544C26.6621 12.6178 26.02 14.1685 26.02 15.8145C26.02 17.4608 26.6638 19.0113 27.8252 20.1743L27.8254 20.1745C28.9888 21.3379 30.5395 21.98 32.1855 21.98C33.8317 21.98 35.3807 21.3377 36.5453 20.1748ZM33.9274 17.5579L33.9272 17.5582C33.0018 18.4849 31.3646 18.4842 30.4428 17.5586L30.4416 17.5575C29.9747 17.0919 29.7185 16.4738 29.7185 15.8145C29.7185 15.1556 29.9745 14.5386 30.442 14.071C30.908 13.6051 31.5249 13.349 32.184 13.349C32.8417 13.349 33.4601 13.6052 33.9259 14.071L33.9262 14.0713C34.8886 15.0325 34.8886 16.5967 33.9274 17.5579Z" fill="url(#paint4_linear_173_128)" stroke="url(#paint5_linear_173_128)"/>
  <defs>
    <linearGradient id="paint0_linear_173_128" x1="9.36821" y1="32.7568" x2="9.36821" y2="44.505" gradientUnits="userSpaceOnUse">
      <stop stop-color="#FFA724"/>
      <stop offset="1" stop-color="#FF6813"/>
    </linearGradient>
    <linearGradient id="paint1_linear_173_128" x1="9.36821" y1="32.7568" x2="9.36821" y2="44.505" gradientUnits="userSpaceOnUse">
      <stop stop-color="#FFA724"/>
      <stop offset="1" stop-color="#FF6813"/>
    </linearGradient>
    <linearGradient id="paint2_linear_173_128" x1="23.9997" y1="1.63501" x2="23.9997" y2="46.365" gradientUnits="userSpaceOnUse">
      <stop stop-color="#FFA724"/>
      <stop offset="1" stop-color="#FF6813"/>
    </linearGradient>
    <linearGradient id="paint3_linear_173_128" x1="23.9997" y1="1.63501" x2="23.9997" y2="46.365" gradientUnits="userSpaceOnUse">
      <stop stop-color="#FFA724"/>
      <stop offset="1" stop-color="#FF6813"/>
    </linearGradient>
    <linearGradient id="paint4_linear_173_128" x1="32.184" y1="10.2037" x2="32.184" y2="21.48" gradientUnits="userSpaceOnUse">
      <stop stop-color="#FFA724"/>
      <stop offset="1" stop-color="#FF6813"/>
    </linearGradient>
    <linearGradient id="paint5_linear_173_128" x1="32.184" y1="10.2037" x2="32.184" y2="21.48" gradientUnits="userSpaceOnUse">
      <stop stop-color="#FFA724"/>
      <stop offset="1" stop-color="#FF6813"/>
    </linearGradient>
  </defs>
</svg>