<svg width="48" height="48" viewBox="0 0 48 48" fill="none" xmlns="http://www.w3.org/2000/svg">
<path fill-rule="evenodd" clip-rule="evenodd" d="M20.3687 2.7721C22.6814 1.74263 25.2669 1.74263 27.5796 2.7721L27.6147 2.78814L39.9798 8.5809C39.9956 8.5883 40.0113 8.59591 40.0269 8.60372C42.797 9.99097 44.4387 13.0395 43.8973 16.3077C42.8692 22.6882 39.7561 35.2657 28.2163 44.5121L28.1949 44.5292L28.1948 44.5291C25.6772 46.4903 22.2711 46.4903 19.7535 44.5291L19.7319 44.5122L19.732 44.5121C8.18932 35.2634 5.07752 22.682 4.05027 16.303C4.04294 16.2575 4.03718 16.2117 4.03301 16.1658C3.77681 13.3431 5.03548 10.0167 8.1708 8.57949L20.3222 2.79351C20.3376 2.78617 20.3531 2.77904 20.3687 2.7721ZM22.0168 6.4169L9.8762 12.1978L9.84506 12.2123C8.62179 12.7692 7.89413 14.1984 8.01138 15.7412C8.98981 21.7637 11.8782 33.0867 22.2214 41.3811C23.289 42.2063 24.6594 42.2063 25.727 41.381C36.1127 33.0525 38.9822 21.6703 39.9489 15.667L39.9506 15.6567C40.2027 14.1416 39.4613 12.8049 38.2563 12.1907L25.9367 6.41922C24.671 5.86103 23.2829 5.86026 22.0168 6.4169Z" fill="url(#paint0_linear_142_2280)"/>
<path fill-rule="evenodd" clip-rule="evenodd" d="M33.1979 14.3984C34.0825 15.0599 34.2633 16.3132 33.6017 17.1978L24.6274 29.1978C24.2516 29.7003 23.6618 29.9973 23.0344 30C22.407 30.0027 21.8147 29.7108 21.4345 29.2116L16.4089 22.6116C15.7397 21.7328 15.9097 20.478 16.7885 19.8088C17.6673 19.1396 18.9221 19.3096 19.5913 20.1884L23.0114 24.6798L30.3985 14.8022C31.06 13.9176 32.3134 13.7368 33.1979 14.3984Z" fill="url(#paint1_linear_142_2280)"/>
<defs>
<linearGradient id="paint0_linear_142_2280" x1="24.0004" y1="2" x2="24.0004" y2="46" gradientUnits="userSpaceOnUse">
<stop stop-color="#FFA724"/>
<stop offset="1" stop-color="#FF6813"/>
</linearGradient>
<linearGradient id="paint1_linear_142_2280" x1="25.0001" y1="13.9999" x2="25.0001" y2="30" gradientUnits="userSpaceOnUse">
<stop stop-color="#FFA724"/>
<stop offset="1" stop-color="#FF6813"/>
</linearGradient>
</defs>
</svg>
